<svg width="97" height="29" viewBox="0 0 97 29" fill="none" xmlns="http://www.w3.org/2000/svg">
<path d="M21.72 0.319901V5.7999H14.28V28.3999H7.43998V5.7999H-2.19643e-05V0.319901H21.72ZM53.1128 0.319901L43.1528 28.3999H34.5928L24.6328 0.319901H31.9128L38.8728 21.5199L45.8728 0.319901H53.1128ZM56.4115 14.3199C56.4115 11.5466 57.0115 9.0799 58.2115 6.9199C59.4115 4.73324 61.0782 3.0399 63.2115 1.8399C65.3715 0.613234 67.8115 -9.91821e-05 70.5315 -9.91821e-05C73.8649 -9.91821e-05 76.7182 0.879901 79.0915 2.6399C81.4649 4.3999 83.0515 6.7999 83.8515 9.8399H76.3315C75.7715 8.66657 74.9715 7.77324 73.9315 7.1599C72.9182 6.54657 71.7582 6.2399 70.4515 6.2399C68.3449 6.2399 66.6382 6.97323 65.3315 8.4399C64.0249 9.90657 63.3715 11.8666 63.3715 14.3199C63.3715 16.7732 64.0249 18.7332 65.3315 20.1999C66.6382 21.6666 68.3449 22.3999 70.4515 22.3999C71.7582 22.3999 72.9182 22.0932 73.9315 21.4799C74.9715 20.8666 75.7715 19.9732 76.3315 18.7999H83.8515C83.0515 21.8399 81.4649 24.2399 79.0915 25.9999C76.7182 27.7332 73.8649 28.5999 70.5315 28.5999C67.8115 28.5999 65.3715 27.9999 63.2115 26.7999C61.0782 25.5732 59.4115 23.8799 58.2115 21.7199C57.0115 19.5599 56.4115 17.0932 56.4115 14.3199ZM92.8403 28.7199C91.6403 28.7199 90.6536 28.3732 89.8803 27.6799C89.1336 26.9599 88.7603 26.0799 88.7603 25.0399C88.7603 23.9732 89.1336 23.0799 89.8803 22.3599C90.6536 21.6399 91.6403 21.2799 92.8403 21.2799C94.0136 21.2799 94.9736 21.6399 95.7203 22.3599C96.4936 23.0799 96.8803 23.9732 96.8803 25.0399C96.8803 26.0799 96.4936 26.9599 95.7203 27.6799C94.9736 28.3732 94.0136 28.7199 92.8403 28.7199Z" fill="white" fill-opacity="0.8"/>
</svg>
